<svg width="255" height="221" viewBox="0 0 255 221" fill="none" xmlns="http://www.w3.org/2000/svg">
<g filter="url(#filter0_d_220_3)">
<ellipse cx="162" cy="75.5" rx="57" ry="59.5" fill="url(#paint0_linear_220_3)"/>
</g>
<g filter="url(#filter1_d_220_3)">
<rect x="8" y="89" width="239" height="93" rx="41.5" fill="url(#paint1_linear_220_3)" shape-rendering="crispEdges"/>
</g>
<g filter="url(#filter2_d_220_3)">
<ellipse cx="84.5" cy="75.5" rx="32.5" ry="33.5" fill="url(#paint2_linear_220_3)"/>
</g>
<path d="M132.495 198L138.508 204.446C139.698 205.719 140.508 207.343 140.836 209.11C141.165 210.878 140.997 212.71 140.354 214.375C139.71 216.04 138.621 217.463 137.223 218.464C135.825 219.466 134.181 220 132.5 220C130.819 220 129.175 219.466 127.777 218.464C126.379 217.463 125.29 216.04 124.646 214.375C124.003 212.71 123.835 210.878 124.164 209.11C124.492 207.343 125.302 205.719 126.492 204.446L132.495 198Z" stroke="#67D3E9" stroke-width="2" stroke-linecap="round" stroke-linejoin="round"/>
<path d="M141.498 191L143.974 193.051C144.464 193.456 144.797 193.973 144.933 194.535C145.068 195.097 144.999 195.68 144.734 196.21C144.469 196.74 144.02 197.193 143.445 197.511C142.869 197.83 142.192 198 141.5 198C140.808 198 140.131 197.83 139.555 197.511C138.98 197.193 138.531 196.74 138.266 196.21C138.001 195.68 137.932 195.097 138.067 194.535C138.203 193.973 138.536 193.456 139.026 193.051L141.498 191Z" stroke="url(#paint3_linear_220_3)" stroke-opacity="0.31" stroke-linecap="round" stroke-linejoin="round"/>
<path d="M124.497 185L127.681 187.93C128.311 188.509 128.739 189.247 128.913 190.05C129.087 190.853 128.998 191.686 128.658 192.443C128.317 193.2 127.74 193.847 127 194.302C126.26 194.757 125.39 195 124.5 195C123.61 195 122.74 194.757 122 194.302C121.26 193.847 120.683 193.2 120.342 192.443C120.002 191.686 119.913 190.853 120.087 190.05C120.261 189.247 120.689 188.509 121.319 187.93L124.497 185Z" stroke="url(#paint4_linear_220_3)" stroke-opacity="0.31" stroke-width="2" stroke-linecap="round" stroke-linejoin="round"/>
<circle cx="136.5" cy="213.5" r="1.5" fill="#C7C7C7"/>
<defs>
<filter id="filter0_d_220_3" x="85" y="0" width="154" height="159" filterUnits="userSpaceOnUse" color-interpolation-filters="sRGB">
<feFlood flood-opacity="0" result="BackgroundImageFix"/>
<feColorMatrix in="SourceAlpha" type="matrix" values="0 0 0 0 0 0 0 0 0 0 0 0 0 0 0 0 0 0 127 0" result="hardAlpha"/>
<feOffset dy="4"/>
<feGaussianBlur stdDeviation="10"/>
<feComposite in2="hardAlpha" operator="out"/>
<feColorMatrix type="matrix" values="0 0 0 0 0 0 0 0 0 0 0 0 0 0 0 0 0 0 0.25 0"/>
<feBlend mode="normal" in2="BackgroundImageFix" result="effect1_dropShadow_220_3"/>
<feBlend mode="normal" in="SourceGraphic" in2="effect1_dropShadow_220_3" result="shape"/>
</filter>
<filter id="filter1_d_220_3" x="0" y="85" width="255" height="109" filterUnits="userSpaceOnUse" color-interpolation-filters="sRGB">
<feFlood flood-opacity="0" result="BackgroundImageFix"/>
<feColorMatrix in="SourceAlpha" type="matrix" values="0 0 0 0 0 0 0 0 0 0 0 0 0 0 0 0 0 0 127 0" result="hardAlpha"/>
<feOffset dy="4"/>
<feGaussianBlur stdDeviation="4"/>
<feComposite in2="hardAlpha" operator="out"/>
<feColorMatrix type="matrix" values="0 0 0 0 0 0 0 0 0 0 0 0 0 0 0 0 0 0 0.25 0"/>
<feBlend mode="normal" in2="BackgroundImageFix" result="effect1_dropShadow_220_3"/>
<feBlend mode="normal" in="SourceGraphic" in2="effect1_dropShadow_220_3" result="shape"/>
</filter>
<filter id="filter2_d_220_3" x="34" y="28" width="101" height="103" filterUnits="userSpaceOnUse" color-interpolation-filters="sRGB">
<feFlood flood-opacity="0" result="BackgroundImageFix"/>
<feColorMatrix in="SourceAlpha" type="matrix" values="0 0 0 0 0 0 0 0 0 0 0 0 0 0 0 0 0 0 127 0" result="hardAlpha"/>
<feOffset dy="4"/>
<feGaussianBlur stdDeviation="9"/>
<feComposite in2="hardAlpha" operator="out"/>
<feColorMatrix type="matrix" values="0 0 0 0 0 0 0 0 0 0 0 0 0 0 0 0 0 0 0.25 0"/>
<feBlend mode="normal" in2="BackgroundImageFix" result="effect1_dropShadow_220_3"/>
<feBlend mode="normal" in="SourceGraphic" in2="effect1_dropShadow_220_3" result="shape"/>
</filter>
<linearGradient id="paint0_linear_220_3" x1="162" y1="16" x2="162" y2="135" gradientUnits="userSpaceOnUse">
<stop stop-color="white"/>
<stop offset="0.635417" stop-color="#C7C7C7"/>
</linearGradient>
<linearGradient id="paint1_linear_220_3" x1="127.5" y1="89" x2="127.5" y2="182" gradientUnits="userSpaceOnUse">
<stop stop-color="white" stop-opacity="0.88"/>
<stop offset="0.870287" stop-color="#C4C4C4"/>
</linearGradient>
<linearGradient id="paint2_linear_220_3" x1="84.5" y1="42" x2="84.5" y2="109" gradientUnits="userSpaceOnUse">
<stop stop-color="white"/>
<stop offset="0.380208" stop-color="#E5E5E5"/>
</linearGradient>
<linearGradient id="paint3_linear_220_3" x1="141.5" y1="191" x2="141.5" y2="198" gradientUnits="userSpaceOnUse">
<stop offset="0.28125" stop-color="#C4C4C4"/>
<stop offset="1" stop-color="#48CAE4"/>
</linearGradient>
<linearGradient id="paint4_linear_220_3" x1="124.5" y1="185" x2="124.5" y2="195" gradientUnits="userSpaceOnUse">
<stop offset="0.338542" stop-color="#C7C7C7"/>
<stop offset="1" stop-color="#48CAE4"/>
</linearGradient>
</defs>
</svg>
